<svg width="267" height="37" viewBox="0 0 267 37" fill="none" xmlns="http://www.w3.org/2000/svg">
<path d="M7.41477 1.09091V36H0.0340909V1.09091H7.41477ZM12.0037 7.17614V1.09091H40.6741V7.17614H29.9866V36H22.6912V7.17614H12.0037ZM64.055 36L54.0664 1.09091H62.1289L67.9073 25.3466H68.1971L74.5721 1.09091H81.4755L87.8335 25.3977H88.1403L93.9187 1.09091H101.981L91.9925 36H84.7994L78.1516 13.1761H77.8789L71.2482 36H64.055ZM105.777 36V1.09091H129.3V7.17614H113.158V15.4943H128.09V21.5795H113.158V29.9148H129.368V36H105.777ZM135.014 36V1.09091H148.991C151.56 1.09091 153.702 1.47159 155.417 2.23295C157.133 2.99432 158.423 4.05114 159.287 5.40341C160.15 6.74432 160.582 8.28977 160.582 10.0398C160.582 11.4034 160.31 12.6023 159.764 13.6364C159.219 14.6591 158.469 15.5 157.514 16.1591C156.571 16.8068 155.491 17.267 154.275 17.5398V17.8807C155.605 17.9375 156.849 18.3125 158.008 19.0057C159.179 19.6989 160.128 20.6705 160.855 21.9205C161.582 23.1591 161.946 24.6364 161.946 26.3523C161.946 28.2045 161.486 29.858 160.565 31.3125C159.656 32.7557 158.31 33.8977 156.525 34.7386C154.741 35.5795 152.542 36 149.929 36H135.014ZM142.395 29.9659H148.412C150.469 29.9659 151.969 29.5739 152.912 28.7898C153.855 27.9943 154.327 26.9375 154.327 25.6193C154.327 24.6534 154.094 23.8011 153.628 23.0625C153.162 22.3239 152.497 21.7443 151.633 21.3239C150.781 20.9034 149.764 20.6932 148.582 20.6932H142.395V29.9659ZM142.395 15.6989H147.866C148.878 15.6989 149.775 15.5227 150.56 15.1705C151.355 14.8068 151.98 14.2955 152.435 13.6364C152.9 12.9773 153.133 12.1875 153.133 11.267C153.133 10.0057 152.685 8.98864 151.787 8.21591C150.9 7.44318 149.639 7.05682 148.003 7.05682H142.395V15.6989ZM185.532 11.1307C185.396 9.75568 184.81 8.6875 183.776 7.92614C182.742 7.16477 181.339 6.78409 179.566 6.78409C178.362 6.78409 177.344 6.95454 176.515 7.29545C175.685 7.625 175.049 8.08523 174.606 8.67614C174.174 9.26705 173.958 9.9375 173.958 10.6875C173.935 11.3125 174.066 11.858 174.35 12.3239C174.646 12.7898 175.049 13.1932 175.56 13.5341C176.072 13.8636 176.663 14.1534 177.333 14.4034C178.004 14.642 178.719 14.8466 179.481 15.017L182.617 15.767C184.14 16.108 185.538 16.5625 186.81 17.1307C188.083 17.6989 189.185 18.3977 190.117 19.2273C191.049 20.0568 191.771 21.0341 192.282 22.1591C192.805 23.2841 193.072 24.5739 193.083 26.0284C193.072 28.1648 192.526 30.017 191.447 31.5852C190.379 33.142 188.833 34.3523 186.81 35.2159C184.799 36.0682 182.373 36.4943 179.532 36.4943C176.714 36.4943 174.259 36.0625 172.168 35.1989C170.089 34.3352 168.464 33.0568 167.293 31.3636C166.134 29.6591 165.526 27.5511 165.469 25.0398H172.612C172.691 26.2102 173.026 27.1875 173.617 27.9716C174.219 28.7443 175.021 29.3295 176.021 29.7273C177.032 30.1136 178.174 30.3068 179.447 30.3068C180.697 30.3068 181.782 30.125 182.702 29.7614C183.634 29.3977 184.356 28.892 184.867 28.2443C185.379 27.5966 185.634 26.8523 185.634 26.0114C185.634 25.2273 185.401 24.5682 184.935 24.0341C184.481 23.5 183.81 23.0455 182.924 22.6705C182.049 22.2955 180.975 21.9545 179.702 21.6477L175.901 20.6932C172.958 19.9773 170.634 18.858 168.93 17.3352C167.225 15.8125 166.379 13.7614 166.39 11.1818C166.379 9.06818 166.941 7.22159 168.077 5.64205C169.225 4.0625 170.799 2.82955 172.799 1.94318C174.799 1.05682 177.072 0.613635 179.617 0.613635C182.208 0.613635 184.469 1.05682 186.401 1.94318C188.344 2.82955 189.856 4.0625 190.935 5.64205C192.015 7.22159 192.572 9.05114 192.606 11.1307H185.532ZM205.274 1.09091V36H197.894V1.09091H205.274ZM209.863 7.17614V1.09091H238.534V7.17614H227.846V36H220.551V7.17614H209.863ZM243.101 36V1.09091H266.624V7.17614H250.482V15.4943H265.414V21.5795H250.482V29.9148H266.692V36H243.101Z" fill="#2D66EE"/>
</svg>
